{"title":"Dumb And Dumber To 2014 720p HDCAM FIRST ENG x264","uid":11518095,"size":1943902748,"categoryP":"video","categoryS":"handheld","magnet":"?xt=urn:btih:a7e6cae9783b5a1129f262eaed33e30879376179&amp;dn=Dumb+And+Dumber+To+2014+720p+HDCAM+FIRST+ENG+x264&amp;tr=udp%3A%2F%2Ftracker.openbittorrent.com%3A80&amp;tr=udp%3A%2F%2Fopen.demonii.com%3A1337&amp;tr=udp%3A%2F%2Ftracker.coppersurfer.tk%3A6969&amp;tr=udp%3A%2F%2Fexodus.desync.com%3A6969","seeders":8,"leechers":0,"uploader":"so2dya201","files":1,"time":1416459938,"description":"Video\nID : 1\nFormat : MPEG-4 Visual\nFormat profile : Simple@L3\nFormat settings, BVOP : No\nFormat settings, QPel : No\nFormat settings, GMC : No warppoints\nFormat settings, Matrix : Default (H.263)\nCodec ID : 20\nDuration : 1h 42mn\nBit rate : 2 394 Kbps\nWidth : 1 280 pixels\nHeight : 536 pixels\nDisplay aspect ratio : 2.40:1\nFrame rate mode : Variable\nFrame rate : 59.940 fps\nMinimum frame rate : 59.916 fps\nMaximum frame rate : 60.157 fps\nColor space : YUV\nChroma subsampling : 4:2:0\nBit depth : 8 bits\nScan type : Progressive\nCompression mode : Lossy\nBits/(Pixel*Frame) : 0.058\nStream size : 1.71 GiB (95%)\nWriting library : ZJMedia MPEG Encoder\n\nAudio\nID : 2\nFormat : AAC\nFormat/Info : Advanced Audio Codec\nFormat profile : LC\nCodec ID : 40\nDuration : 1h 42mn\nBit rate mode : Variable\nBit rate : 128 Kbps\nChannel(s) : 2 channels\nChannel positions : Front: L R\nSampling rate : 48.0 KHz\nCompression mode : Lossy\nStream size : 93.9 MiB (5%)\n\n[URL=http://someimage.com/shy2xr4][IMG]http://t1.someimage.com/shy2xr4.jpg[/IMG][/URL] [URL=http://someimage.com/rBIBw3y][IMG]http://t1.someimage.com/rBIBw3y.jpg[/IMG][/URL] [URL=http://someimage.com/Z8xYcDQ][IMG]http://t1.someimage.com/Z8xYcDQ.jpg[/IMG][/URL] [URL=http://someimage.com/D1FSAwg][IMG]http://t1.someimage.com/D1FSAwg.jpg[/IMG][/URL] [URL=http://someimage.com/x4YAhE2][IMG]http://t1.someimage.com/x4YAhE2.jpg[/IMG][/URL]\n\n\n &lt;a href=&quot;\nhttp://someimage.com/shy2xr4&quot; rel=&quot;nofollow&quot; target=&quot;_NEW&quot;&gt;\nhttp://someimage.com/shy2xr4&lt;/a&gt; &lt;a href=&quot;\nhttp://someimage.com/rBIBw3y&quot; rel=&quot;nofollow&quot; target=&quot;_NEW&quot;&gt;\nhttp://someimage.com/rBIBw3y&lt;/a&gt; &lt;a href=&quot;\nhttp://someimage.com/Z8xYcDQ&quot; rel=&quot;nofollow&quot; target=&quot;_NEW&quot;&gt;\nhttp://someimage.com/Z8xYcDQ&lt;/a&gt; &lt;a href=&quot;\nhttp://someimage.com/D1FSAwg&quot; rel=&quot;nofollow&quot; target=&quot;_NEW&quot;&gt;\nhttp://someimage.com/D1FSAwg&lt;/a&gt; &lt;a href=&quot;\nhttp://someimage.com/x4YAhE2&quot; rel=&quot;nofollow&quot; target=&quot;_NEW&quot;&gt;\nhttp://someimage.com/x4YAhE2&lt;/a&gt;","torrent":{"xt":"urn:btih:a7e6cae9783b5a1129f262eaed33e30879376179","amp;dn":"Dumb+And+Dumber+To+2014+720p+HDCAM+FIRST+ENG+x264","amp;tr":["udp%3A%2F%2Ftracker.openbittorrent.com%3A80","udp%3A%2F%2Fopen.demonii.com%3A1337","udp%3A%2F%2Ftracker.coppersurfer.tk%3A6969","udp%3A%2F%2Fexodus.desync.com%3A6969"],"infoHash":"a7e6cae9783b5a1129f262eaed33e30879376179","infoHashBuffer":{"type":"Buffer","data":[167,230,202,233,120,59,90,17,41,242,98,234,237,51,227,8,121,55,97,121]},"announce":[],"urlList":[]}}